<?xml version="1.0" encoding="iso-8859-1"?>
<!-- Generator: Adobe Illustrator 16.0.4, SVG Export Plug-In . SVG Version: 6.00 Build 0)  -->
<!DOCTYPE svg PUBLIC "-//W3C//DTD SVG 1.1//EN" "http://www.w3.org/Graphics/SVG/1.1/DTD/svg11.dtd">
<svg version="1.1" id="Capa_1" xmlns="http://www.w3.org/2000/svg" xmlns:xlink="http://www.w3.org/1999/xlink" x="0px" y="0px"
	 width="10.509px" height="15px" viewBox="0 0 10.509 15" style="enable-background:new 0 0 10.509 15;" xml:space="preserve">
<path style="fill:#010002;" d="M7.435,9.5c0,0,1.434,1.436,1.438,1.438c0.457,0.46,0.339,1.27-0.095,1.711l-2,2.084
	c-0.772,0.77-1.805-0.299-1.055-1.045l1.269-1.27L5.75,11.185L7.435,9.5L7.435,9.5z M2.976,9.5L2.976,9.5
	c0,0-1.431,1.436-1.431,1.438c-0.461,0.46-0.343,1.27,0.086,1.711l2.008,2.084c0.77,0.77,1.802-0.299,1.056-1.045l-1.267-1.27
	l1.233-1.233L2.976,9.5 M5.256,4.16c1.148,0,2.08-0.929,2.08-2.083C7.336,0.93,6.404,0,5.256,0c-1.15,0-2.083,0.93-2.083,2.077
	C3.173,3.23,4.105,4.16,5.256,4.16z M7.51,8.667l0.03-1.419l1.729,1.613C9.41,8.995,9.591,9.059,9.771,9.059
	c0.196,0,0.394-0.078,0.538-0.233c0.278-0.298,0.262-0.764-0.035-1.041c0,0-1.982-2.154-2.267-2.405
	C7.479,4.912,6.706,4.647,5.451,4.647H5.057c-1.255,0-2.028,0.265-2.557,0.732C2.216,5.63,0.233,7.785,0.233,7.785
	C-0.063,8.062-0.08,8.528,0.198,8.826C0.343,8.981,0.54,9.059,0.736,9.059c0.181,0,0.361-0.064,0.503-0.197l1.729-1.613l0.03,1.419
	H7.51z"/>
<g>
</g>
<g>
</g>
<g>
</g>
<g>
</g>
<g>
</g>
<g>
</g>
<g>
</g>
<g>
</g>
<g>
</g>
<g>
</g>
<g>
</g>
<g>
</g>
<g>
</g>
<g>
</g>
<g>
</g>
</svg>
