<?xml version="1.0" encoding="UTF-8" standalone="no"?>
<!-- Generator: Adobe Illustrator 13.0.2, SVG Export Plug-In . SVG Version: 6.00 Build 14948)  -->
<svg
   xmlns:dc="http://purl.org/dc/elements/1.1/"
   xmlns:cc="http://creativecommons.org/ns#"
   xmlns:rdf="http://www.w3.org/1999/02/22-rdf-syntax-ns#"
   xmlns:svg="http://www.w3.org/2000/svg"
   xmlns="http://www.w3.org/2000/svg"
   xmlns:sodipodi="http://sodipodi.sourceforge.net/DTD/sodipodi-0.dtd"
   xmlns:inkscape="http://www.inkscape.org/namespaces/inkscape"
   version="1.0"
   id="Layer_1"
   x="0px"
   y="0px"
   width="500"
   height="255"
   viewBox="0 0 500 500"
   enable-background="new 0 0 500 500"
   xml:space="preserve"
   sodipodi:version="0.32"
   inkscape:version="0.46"
   sodipodi:docname="ucla2.svg"
   inkscape:output_extension="org.inkscape.output.svg.inkscape"><metadata
     id="metadata20"><rdf:RDF><cc:Work
         rdf:about=""><dc:format>image/svg+xml</dc:format><dc:type
           rdf:resource="http://purl.org/dc/dcmitype/StillImage" /></cc:Work></rdf:RDF></metadata><defs
     id="defs18"><inkscape:perspective
       sodipodi:type="inkscape:persp3d"
       inkscape:vp_x="0 : 250 : 1"
       inkscape:vp_y="0 : 1000 : 0"
       inkscape:vp_z="500 : 250 : 1"
       inkscape:persp3d-origin="250 : 166.66667 : 1"
       id="perspective22" /></defs><sodipodi:namedview
     inkscape:window-height="667"
     inkscape:window-width="640"
     inkscape:pageshadow="2"
     inkscape:pageopacity="0.0"
     guidetolerance="10.0"
     gridtolerance="10.0"
     objecttolerance="10.0"
     borderopacity="1.0"
     bordercolor="#666666"
     pagecolor="#ffffff"
     id="base"
     showgrid="false"
     inkscape:zoom="3.696"
     inkscape:cx="352.78624"
     inkscape:cy="117.02497"
     inkscape:window-x="829"
     inkscape:window-y="340"
     inkscape:current-layer="Layer_1" /><path
     clip-rule="evenodd"
     d="M 702.9403,406.58347 C 694.96117,426.55423 683.75178,434.77819 675.65254,440.99851 C 650.91547,460.00235 613.20621,488.82114 570.71064,483.48802 C 553.69863,481.35475 544.55939,471.28464 539.64703,452.04554 C 530.4408,456.97792 522.54637,466.6553 510.26353,473.2903 C 474.92574,492.37589 426.12331,485.6392 414.55742,447.79699 C 387.14753,463.99571 327.44101,500.25892 284.43138,477.53884 C 272.25096,471.10322 264.36441,459.55776 257.56511,446.09637 C 222.73747,477.63255 142.49126,500.89491 91.339024,465.6425 C 83.340201,460.12995 77.08848,452.64565 70.350251,445.24907 C 48.031935,463.09258 3.3027683,495.35244 -38.789022,479.23945 C -52.990316,473.80267 -62.119727,462.28114 -69.011589,447.79699 C -99.102181,473.46373 -153.31334,499.97182 -193.2621,472.43899 C -202.74211,465.90568 -212.61407,455.9751 -219.28732,445.24706 C -235.38932,419.363 -230.80394,378.60802 -221.80651,347.52242 C -198.96231,268.60424 -167.43782,214.90823 -139.53158,139.32748 C -133.54182,123.10485 -116.44707,88.019906 -141.20973,85.790956 C -161.09746,84.004616 -165.94873,104.92837 -168.91507,114.68349 C -173.24242,128.92243 -175.11557,146.8397 -187.38461,152.07315 C -200.76849,157.78108 -216.08857,150.95269 -220.96546,140.17678 C -226.49037,127.96944 -221.55439,109.157 -218.44625,98.538601 C -207.12264,59.865035 -179.82307,36.548847 -142.04881,28.857191 C -80.685804,16.364737 -36.344666,52.570122 -32.070479,107.88702 C -30.220969,131.82323 -42.228054,164.61144 -51.381102,186.91484 C -71.046255,234.84313 -89.706875,275.1914 -108.46796,324.57706 C -111.32004,332.08729 -117.53827,349.85703 -120.22095,361.9667 C -124.73544,382.34818 -126.84101,410.5509 -100.07323,407.00614 C -86.51799,405.21181 -77.197526,385.26693 -70.689743,372.16441 C -35.074222,300.46139 -10.67399,220.08983 17.460728,139.32748 C 28.120565,108.72835 39.479636,64.205292 60.275387,54.350493 C 75.603355,47.087481 141.03963,43.789923 145.90864,64.546216 C 148.40421,75.180549 137.28741,100.99283 134.15564,110.43495 C 105.53047,196.74375 74.352613,280.80362 40.129622,361.9667 C 34.476687,375.37425 25.195613,389.46165 28.376626,404.45618 C 40.752044,402.43858 52.58581,391.77832 56.921046,380.66151 C 61.480827,368.97252 61.254313,355.91386 63.635654,345.8218 C 71.339026,313.18911 84.108387,286.49363 103.09399,262.54344 C 125.69394,234.03567 157.60847,205.48207 210.55309,206.45898 C 244.04927,207.07702 270.95098,230.16393 274.35849,262.54344 C 277.09634,288.54712 265.33152,313.32468 245.81211,323.72575 C 231.70142,331.24396 204.2167,331.22601 192.08355,322.87644 C 178.73707,313.68954 173.53321,284.54977 189.56631,271.04052 C 175.11684,279.36617 162.32384,297.60844 152.62718,319.47721 C 143.01322,341.15259 136.1962,385.91488 157.66361,400.20366 C 179.80463,414.941 213.16686,400.28739 230.70477,391.70457 C 237.21058,388.52063 249.99766,383.08386 253.37171,378.11158 C 256.35181,373.71949 257.76406,362.79209 260.08827,355.16623 C 284.6638,274.47766 310.19069,191.32288 347.39769,123.17861 C 374.09652,74.285385 399.88537,25.304436 463.25151,13.559613 C 503.21409,6.1530584 542.89696,24.104239 547.20661,58.597043 C 551.45911,92.625324 527.95902,130.53134 516.14299,152.07115 C 479.02264,219.75886 436.43256,274.39191 383.49775,327.97231 C 378.76265,332.76315 372.72366,338.41924 367.54542,343.2699 C 362.58775,347.91119 354.74848,353.81251 352.43412,358.56548 C 346.51921,370.70703 344.04728,392.51 348.23677,406.15082 C 373.17866,407.84545 391.56944,395.66005 404.48455,382.35815 C 407.4745,338.76813 421.53201,298.22249 444.78392,266.78999 C 466.38526,237.58444 500.95489,211.06639 540.49201,207.3063 C 570.26943,204.47527 590.67715,212.76103 603.45636,229.40036 C 619.15263,209.33786 678.60112,189.4867 674.81542,240.44739 C 673.72423,255.14685 666.84417,269.97391 661.38426,283.7862 C 650.91153,310.2863 639.04627,337.12932 628.64445,364.51464 C 623.29681,378.58409 616.0504,393.67632 619.40869,408.70276 C 630.07639,408.91408 640.08822,398.74627 647.53357,393.83183 C 676.49553,374.71035 686.33009,368.6316 697.06478,377.68495 C 707.13765,386.18803 706.96826,396.49141 702.9403,406.58347 z M 693.70452,386.18803 C 679.43428,376.41496 667.25977,395.95909 642.91272,407.85743 C 629.90503,414.21331 625.38269,419.03006 618.56763,418.05315 C 599.41064,415.30984 614.83709,377.91421 618.56763,367.91587 C 631.90031,332.17701 643.09787,306.0218 656.34783,271.89382 C 660.8623,260.26266 673.95467,231.38406 661.38426,220.05792 C 651.53987,211.188 632.09729,219.20861 622.76894,225.15779 C 613.09196,231.32227 608.70356,238.74876 602.61924,246.40253 C 595.19162,224.16494 573.73802,213.70406 544.69332,215.80937 C 507.05299,218.53873 471.19126,243.63329 450.66536,272.74514 C 428.51447,304.16169 414.99863,345.11804 412.88517,386.61468 C 406.11345,394.07306 397.67344,401.63911 384.34274,407.85942 C 374.08272,412.64427 355.62696,419.60624 344.04334,413.8066 C 330.96277,407.25734 339.49932,364.31326 344.88637,353.47159 C 347.31693,348.57111 354.20092,344.67743 359.99567,339.02732 C 415.43391,284.97243 468.79418,223.25183 506.91511,152.92645 C 518.65431,131.267 540.19656,94.65491 538.81779,63.700889 C 537.34055,30.637553 503.97045,18.468079 469.13491,21.211398 C 430.23991,24.273695 403.09594,50.839608 383.50169,79.845784 C 325.27044,166.05289 294.06502,275.57617 260.93127,384.06476 C 234.45501,405.27559 159.59782,436.16782 140.03706,393.41115 C 119.9504,349.50812 153.8602,289.97858 173.61792,271.04651 C 186.66303,258.54609 223.88776,241.08735 224.82925,273.59446 C 205.41623,263.64195 185.30593,279.54761 187.89013,299.93705 C 190.30296,318.98077 216.93483,325.99657 237.42331,317.78256 C 253.90745,311.1715 264.63228,291.02528 265.96771,277.84301 C 268.98328,248.02539 252.96004,229.67548 237.42331,221.75853 C 211.77234,208.68395 171.51823,218.86171 151.79008,230.25565 C 109.99964,254.39125 83.629764,298.77076 72.034319,350.07234 C 69.621461,360.75254 69.071937,373.7215 65.319711,384.06476 C 61.512343,394.55155 42.570049,416.89879 27.539519,413.8066 C 10.172968,410.23191 23.013226,380.26476 26.700437,372.16641 C 34.502287,355.03265 38.368748,342.82729 43.489876,329.67693 C 72.002802,256.47264 99.020719,187.70435 124.08472,112.13556 C 126.84422,103.81191 139.71207,73.02537 136.67878,66.248828 C 133.53126,59.221066 112.51294,57.861379 101.41782,57.751716 C 89.509212,57.630107 71.577345,58.341859 63.637621,62.000278 C 51.372489,67.652384 46.718161,84.953608 40.131598,102.78915 C 21.646275,152.85267 6.2375642,200.3563 -11.07974,246.40053 C -27.528432,290.13211 -44.369086,344.65151 -67.327525,384.91207 C -74.981646,398.33159 -84.733466,415.23608 -100.91035,416.35453 C -146.27177,419.48662 -129.77187,358.65917 -119.37992,328.8296 C -101.46972,277.41635 -80.991103,235.33357 -60.61293,186.06752 C -50.872929,162.51806 -38.422663,134.36121 -41.302309,104.48976 C -44.713773,69.095809 -70.610954,39.672948 -105.94677,35.657658 C -161.25896,29.373551 -196.79962,59.12138 -209.20851,97.691291 C -214.2292,113.2959 -221.47759,146.24361 -197.45553,145.27866 C -181.76122,144.64864 -181.82031,124.46653 -177.30781,110.43693 C -173.36454,98.177741 -165.51147,82.934007 -153.79983,78.996467 C -137.56782,73.539742 -119.48037,81.584276 -118.54083,98.540591 C -117.91843,109.76109 -126.59677,129.20753 -131.13488,141.87941 C -136.42934,156.66462 -141.70017,169.81298 -147.08526,182.66828 C -170.38837,238.28622 -192.92135,284.1271 -211.72772,344.97449 C -220.06139,371.93714 -227.61505,413.28823 -212.56876,439.29989 C -206.2934,450.14158 -195.90735,460.61441 -186.54358,466.49182 C -140.7055,495.25674 -93.476815,453.3554 -64.812253,434.20004 C -59.033255,451.03673 -51.148673,464.78521 -36.267841,470.74036 C 4.5968335,487.10057 50.350226,450.04588 72.871434,432.50142 C 91.315384,467.10587 138.28012,482.3456 184.52789,471.58967 C 216.30454,464.19907 242.49521,446.08442 262.6055,432.50142 C 267.43512,451.35374 276.42862,464.25289 291.99097,470.74036 C 315.69589,480.62707 343.6888,472.34729 365.02818,463.94189 C 388.08314,454.86462 406.50344,441.6046 420.43688,432.50142 C 423.27911,454.96031 435.94209,469.86513 454.85877,474.14159 C 475.91253,478.89855 495.33148,471.21089 510.26747,462.24327 C 525.95588,452.82309 537.37402,439.06464 548.04765,431.6501 C 545.13451,451.47336 550.9608,465.69433 563.15893,471.58967 C 577.60448,478.57158 593.70454,473.65116 606.81465,469.88905 C 636.5704,461.3481 652.29622,447.64149 673.13923,431.64812 C 681.07699,425.55739 691.63243,416.36251 696.22569,405.73214 C 702.09727,392.1372 696.2119,387.9026 693.70452,386.18803 z"
     id="path3"
     style="fill:#ffb300;fill-rule:evenodd;fill-opacity:1" /><path
     clip-rule="evenodd"
     d="M 696.22174,405.73416 C 691.30545,417.34539 681.07502,425.5594 673.13529,431.6501 C 652.29227,447.64149 636.56842,461.3481 606.8107,469.89105 C 593.7006,473.65314 577.60053,478.57158 563.155,471.59166 C 550.95685,465.69635 545.13256,451.47535 548.04371,431.65212 C 537.37007,439.06663 525.95193,452.82509 510.26353,462.24526 C 495.32755,471.21286 475.91057,478.90053 454.85483,474.14358 C 435.93815,469.86712 423.27713,454.96231 420.43293,432.50342 C 406.49951,441.6046 388.07919,454.86662 365.02424,463.94388 C 343.68487,472.34927 315.69195,480.62906 291.98702,470.74235 C 276.4247,464.2549 267.43118,451.35572 262.60156,432.50342 C 242.49126,446.08642 216.30059,464.20107 184.52395,471.59166 C 138.2762,482.34763 91.311444,467.10786 72.867487,432.50342 C 50.346283,450.04786 4.5929042,487.10258 -36.271782,470.74235 C -51.152616,464.78723 -59.037196,451.03873 -64.816194,434.20204 C -93.482722,453.3574 -140.70944,495.25875 -186.54752,466.4938 C -195.9113,460.6184 -206.29932,450.14556 -212.5727,439.3019 C -227.62097,413.29022 -220.06729,371.94113 -211.73166,344.97648 C -192.92529,284.1271 -170.3923,238.28822 -147.08919,182.67028 C -141.70412,169.81496 -136.43328,156.66659 -131.13882,141.8814 C -126.60072,129.20953 -117.92433,109.76307 -118.54477,98.542591 C -119.48628,81.586277 -137.57373,73.541741 -153.80378,78.998468 C -165.51344,82.935996 -173.3665,98.179731 -177.31176,110.43893 C -181.82622,124.46852 -181.76713,144.64864 -197.45946,145.28064 C -221.48349,146.24558 -214.23315,113.29788 -209.21245,97.693281 C -196.80357,59.123382 -161.26095,29.375552 -105.95072,35.659659 C -70.616859,39.674949 -44.719681,69.095809 -41.306249,104.49176 C -38.426593,134.3632 -50.874895,162.52007 -60.616869,186.06953 C -80.995044,235.33556 -101.47366,277.41836 -119.38385,328.8316 C -129.77581,358.66115 -146.27571,419.4906 -100.91428,416.35652 C -84.739373,415.23806 -74.985587,398.33557 -67.331457,384.91406 C -44.373027,344.6535 -27.532372,290.13408 -11.083679,246.40253 C 6.2336359,200.35828 21.642335,152.85466 40.127659,102.79114 C 46.714219,84.955607 51.368553,67.654374 63.633674,62.002265 C 71.573411,58.343848 89.505266,57.634097 101.41387,57.753717 C 112.509,57.865357 133.52731,59.223067 136.67484,66.250818 C 139.70812,73.027359 126.84029,103.8139 124.08078,112.13755 C 99.016779,187.70634 71.996898,256.47264 43.485945,329.67891 C 38.364805,342.82927 34.498347,355.03464 26.696494,372.16839 C 23.009285,380.26678 10.169026,410.2339 27.535578,413.8086 C 42.564132,416.90082 61.508407,394.55353 65.315775,384.06673 C 69.068001,373.72348 69.617537,360.75652 72.030372,350.07435 C 83.625817,298.77275 109.9957,254.39324 151.78613,230.25763 C 171.51234,218.8637 211.76839,208.68593 237.41936,221.76054 C 252.95412,229.67747 268.97935,248.02739 265.96378,277.845 C 264.62834,291.02726 253.90351,311.17349 237.41936,317.78456 C 216.93089,325.99857 190.29903,318.98276 187.88619,299.93905 C 185.30198,279.5496 205.41228,263.64195 224.82532,273.59644 C 223.88381,241.08935 186.65909,258.54808 173.61398,271.0485 C 153.85428,289.98257 119.94646,349.51211 140.03313,393.41315 C 159.59388,436.1698 234.45107,405.27759 260.92733,384.06673 C 294.0591,275.57817 325.26453,166.05488 383.49775,79.847773 C 403.09002,50.841596 430.23596,24.275696 469.13099,21.213387 C 503.9665,18.470067 537.33661,30.639544 538.81386,63.702877 C 540.19263,94.656895 518.65038,131.26899 506.91116,152.92843 C 468.79023,223.25381 415.43195,284.97442 359.99173,339.02931 C 354.19697,344.67942 347.31298,348.5731 344.88242,353.47358 C 339.49734,364.31527 330.96081,407.25931 344.0394,413.8086 C 355.62302,419.60624 374.07879,412.64627 384.33879,407.86142 C 397.67146,401.6411 406.11149,394.07505 412.88123,386.61667 C 414.99272,345.12203 428.51053,304.16568 450.66141,272.74714 C 471.18731,243.63528 507.04904,218.54273 544.68938,215.81136 C 573.73408,213.70603 595.18966,224.16691 602.61529,246.40452 C 608.70157,238.75075 613.08802,231.32626 622.76501,225.15979 C 632.09335,219.2126 651.53592,211.19 661.38032,220.05992 C 673.95269,231.38608 660.85836,260.26465 656.34389,271.89584 C 643.09394,306.0238 631.89638,332.179 618.5637,367.91786 C 614.83315,377.9182 599.79672,413.30817 618.5637,418.05514 C 625.27829,419.75576 637.45279,410.26581 642.90878,407.00811 C 666.67873,392.81904 679.99564,380.04945 688.66217,382.78878 C 702.09727,387.03734 698.74096,399.78298 696.22174,405.73416 z M 408.6819,234.5042 C 440.04688,193.96254 468.97144,146.25555 492.63698,98.540591 C 497.27358,89.196179 502.95607,71.258966 498.51251,64.550205 C 489.59187,51.082835 471.1164,74.068068 465.77073,81.546395 C 435.5777,123.78867 409.38901,170.33135 390.21431,220.05992 C 382.15443,240.96174 373.26532,262.19454 368.38646,282.09355 C 384.50031,268.66606 395.92239,250.99799 408.6819,234.5042 z M 515.30393,281.24025 C 495.89482,303.63734 479.81642,335.51045 477.52373,367.91587 C 475.84756,391.5969 481.86488,414.82935 498.51053,417.20385 C 515.41422,419.61621 524.83906,404.6775 532.09334,392.56184 C 547.68722,366.51629 555.9992,340.84556 568.19342,311.83539 C 572.63895,301.2529 584.0177,280.30322 578.26629,265.94666 C 574.88042,257.49543 563.93893,254.63446 557.27751,254.89964 C 538.55385,255.64328 525.37482,269.61904 515.30393,281.24025 z"
     id="path5"
     style="fill:#536895;fill-rule:evenodd;fill-opacity:1" /><path
     clip-rule="evenodd"
     d="M 368.38646,282.09155 C 373.26532,262.19454 382.15443,240.96174 390.21431,220.05792 C 409.38901,170.33135 435.5777,123.78668 465.77073,81.544407 C 471.1164,74.068068 489.59187,51.080836 498.51251,64.548206 C 502.95607,71.256967 497.27162,89.196179 492.63698,98.538601 C 468.97144,146.25555 440.04688,193.96055 408.6819,234.50221 C 395.92239,250.99799 384.50031,268.66606 368.38646,282.09155 z M 489.27871,69.650061 C 474.84105,80.850601 465.69194,97.392231 454.85681,113.83818 C 429.37522,152.51574 407.50404,196.62411 391.0514,242.15397 C 423.24167,205.89277 447.54345,163.19992 470.80717,118.93603 C 478.56372,104.17675 490.40337,89.409506 490.95489,70.499367 C 490.77171,69.835464 490.2537,69.510495 489.27871,69.650061 z"
     id="path7"
     style="fill:#ffb300;fill-rule:evenodd;fill-opacity:1" /><path
     clip-rule="evenodd"
     d="M 557.27948,254.89964 C 563.94089,254.63446 574.88437,257.49543 578.26825,265.94666 C 584.01968,280.30322 572.64092,301.2529 568.19537,311.83539 C 556.00117,340.84556 547.68918,366.51629 532.09532,392.56184 C 524.84105,404.6775 515.41618,419.61621 498.51251,417.20385 C 481.86685,414.83136 475.84952,391.5969 477.52569,367.91587 C 479.81839,335.51045 495.89678,303.63934 515.30588,281.24025 C 525.37482,269.61904 538.55385,255.64328 557.27948,254.89964 z M 543.00923,267.64527 C 517.04117,282.33478 487.23812,333.89156 485.92238,372.16641 C 485.32557,389.43374 490.1749,408.22625 501.87276,408.70674 C 511.76638,409.11346 521.09276,395.26131 526.21785,386.61268 C 539.38703,364.399 546.4345,343.67062 555.60331,321.18181 C 562.9403,303.18478 571.90031,289.70346 569.8755,268.49459 C 562.95408,260.32645 550.75595,263.26117 543.00923,267.64527 z"
     id="path9"
     style="fill:#ffb300;fill-rule:evenodd;fill-opacity:1" /><path
     clip-rule="evenodd"
     d="M 699.99959,489.4332 C 700.71259,489.27768 700.7914,489.76612 700.84062,490.2845"
     id="path11"
     style="fill:#ffffff;fill-rule:evenodd" /><g
     id="g13"
     transform="matrix(1.9696669,0,0,1.9936886,-242.32258,-213.48764)"><path
       d="M 486.772,206.747 C 488.084,206.747 489.363,207.084 490.611,207.756 C 491.859,208.428 492.831,209.39 493.528,210.642 C 494.224,211.893 494.573,213.199 494.573,214.558 C 494.573,215.903 494.23,217.196 493.545,218.437 C 492.858,219.678 491.896,220.642 490.657,221.328 C 489.42,222.015 488.125,222.357 486.772,222.357 C 485.421,222.357 484.126,222.014 482.888,221.328 C 481.651,220.642 480.687,219.678 479.997,218.437 C 479.307,217.196 478.963,215.902 478.963,214.558 C 478.963,213.2 479.312,211.894 480.012,210.642 C 480.712,209.39 481.687,208.429 482.935,207.756 C 484.183,207.083 485.463,206.747 486.772,206.747 z M 486.772,208.041 C 485.677,208.041 484.61,208.322 483.571,208.884 C 482.534,209.446 481.721,210.249 481.136,211.294 C 480.549,212.339 480.255,213.427 480.255,214.558 C 480.255,215.682 480.544,216.76 481.119,217.791 C 481.695,218.822 482.5,219.625 483.534,220.201 C 484.569,220.777 485.648,221.065 486.771,221.065 C 487.897,221.065 488.975,220.777 490.009,220.201 C 491.044,219.625 491.848,218.822 492.42,217.791 C 492.992,216.76 493.278,215.682 493.278,214.558 C 493.278,213.427 492.986,212.339 492.404,211.294 C 491.821,210.249 491.009,209.446 489.967,208.884 C 488.929,208.322 487.863,208.041 486.772,208.041 z M 483.35,218.872 L 483.35,210.472 L 486.237,210.472 C 487.222,210.472 487.936,210.55 488.378,210.705 C 488.82,210.86 489.171,211.13 489.434,211.517 C 489.696,211.903 489.827,212.313 489.827,212.747 C 489.827,213.361 489.608,213.896 489.17,214.351 C 488.732,214.806 488.151,215.061 487.427,215.116 C 487.724,215.241 487.962,215.389 488.141,215.561 C 488.479,215.892 488.893,216.447 489.383,217.227 L 490.406,218.872 L 488.751,218.872 L 488.007,217.548 C 487.42,216.507 486.947,215.855 486.59,215.593 C 486.341,215.4 485.979,215.303 485.503,215.303 L 484.707,215.303 L 484.707,218.872 L 483.35,218.872 L 483.35,218.872 z M 484.705,214.144 L 486.349,214.144 C 487.135,214.144 487.672,214.027 487.958,213.792 C 488.244,213.557 488.387,213.247 488.387,212.861 C 488.387,212.612 488.319,212.39 488.181,212.194 C 488.043,211.998 487.852,211.851 487.607,211.755 C 487.362,211.659 486.908,211.61 486.247,211.61 L 484.706,211.61 L 484.706,214.144 L 484.705,214.144 z"
       id="path15" /></g></svg>